<?xml version="1.0" standalone="no"?>
<!DOCTYPE svg PUBLIC "-//W3C//DTD SVG 20010904//EN"
 "http://www.w3.org/TR/2001/REC-SVG-20010904/DTD/svg10.dtd">
<svg version="1.0" xmlns="http://www.w3.org/2000/svg"
 width="534.000000pt" height="534.000000pt" viewBox="0 0 534.000000 534.000000"
 preserveAspectRatio="xMidYMid meet">
<metadata>
Created by potrace 1.14, written by Peter Selinger 2001-2017
</metadata>
<g transform="translate(0.000000,534.000000) scale(0.100000,-0.100000)"
fill="#000000" stroke="none">
<path d="M1505 3560 c-210 -47 -374 -173 -453 -350 -36 -80 -52 -159 -55 -269
-2 -45 -6 -54 -27 -66 -14 -8 -63 -35 -110 -61 -341 -187 -575 -431 -660 -688
-12 -38 -25 -85 -28 -105 -7 -45 -7 -197 1 -231 15 -70 20 -88 33 -120 56
-135 146 -262 262 -371 301 -283 785 -512 1297 -614 22 -5 42 -9 45 -10 3 0
27 -4 53 -9 27 -4 56 -9 65 -10 63 -11 94 -16 147 -21 33 -4 71 -8 85 -11 151
-25 759 -25 950 0 14 2 54 7 90 10 36 4 90 11 120 16 30 5 71 12 90 15 471 74
931 239 1245 446 172 114 349 301 442 467 123 220 123 463 1 682 -109 196
-342 396 -640 550 l-106 55 2 82 c13 393 -336 676 -766 620 -194 -25 -381
-151 -463 -312 l-28 -56 -46 5 c-177 20 -461 25 -671 12 l-105 -7 -34 62
c-128 236 -433 356 -736 289z"/>
</g>
</svg>
